<svg xmlns="http://www.w3.org/2000/svg" viewBox="0 0 32 32">
  <path d="M24 18c1.7 0 3-1.3 3-3s-1.3-3-3-3-3 1.3-3 3 1.3 3 3 3zm-1-4h2v2h-2v-2zm1 12c1.7 0 3-1.3 3-3s-1.3-3-3-3-3 1.3-3 3 1.3 3 3 3zm-1-4h2v2h-2v-2zm-7 4c1.7 0 3-1.3 3-3s-1.3-3-3-3-3 1.3-3 3 1.3 3 3 3zm-1-4h2v2h-2v-2zM27 0H5C2.8 0 1 1.8 1 4v24c0 2.2 1.8 4 4 4h22c2.2 0 4-1.8 4-4V4c0-2.2-1.8-4-4-4zm2 28c0 1.1-.9 2-2 2H5c-1.1 0-2-.9-2-2V8h26v20zm0-22H3V4c0-1.1.9-2 2-2h22c1.1 0 2 .9 2 2v2zM16 18c1.7 0 3-1.3 3-3s-1.3-3-3-3-3 1.3-3 3 1.3 3 3 3zm-1-4h2v2h-2v-2zM8 26c1.7 0 3-1.3 3-3s-1.3-3-3-3-3 1.3-3 3 1.3 3 3 3zm-1-4h2v2H7v-2zm1-4c1.7 0 3-1.3 3-3s-1.3-3-3-3-3 1.3-3 3 1.3 3 3 3zm-1-4h2v2H7v-2z" fill="#fff"/>
</svg>
